# xmcd
# 
# Track frame offsets:
#     187
#     12925
#     26715
#     56285
#     76895
#     103430
#     147532
#     172922
#     201090
#     220415
#     249105
#     268517
#     298170
# 
# Disc length: 4201
# 
# Revision: 2
# Processed by: cddbd v1.5.2PL0 Copyright (c) Steve Scherf et al.
# Submitted via: fre:ac v1.0.17
# 
DISCID=bb10670d
DTITLE=Various Artist - Chesky Records Promo Sampler
DYEAR=1992
DGENRE=Jazz
TTITLE0=Sara K - Miles Away
TTITLE1=Kenny Rankin - Haven't We Met?
TTITLE2=Paquito D'Rivera - Havana Cafe
TTITLE3=Orquesta Nova - Serenata
TTITLE4=Fred Hersch - Heartsong
TTITLE5=McCoy Tyner - Recorda Me
TTITLE6=Kenny Rankin - What Am I Gonna Do With You...Aime?
TTITLE7=Bruce Dunlap - Spokes
TTITLE8=Orquesta Nova - Oblivion
TTITLE9=Fred Hersch - Child's Song
TTITLE10=Bruce Dunlap - Tesuque
TTITLE11=Tom Harrel - Touch the Sky
TTITLE12=Sara K - Trust Somebody
EXTD=YEAR: 1992
EXTT0=
EXTT1=
EXTT2=
EXTT3=
EXTT4=
EXTT5=
EXTT6=
EXTT7=
EXTT8=
EXTT9=
EXTT10=
EXTT11=
EXTT12=
PLAYORDER=
